<mxfile host="app.diagrams.net" modified="2020-08-29T19:44:25.172Z" agent="5.0 (X11; Linux x86_64) AppleWebKit/537.36 (KHTML, like Gecko) Chrome/83.0.4103.116 Safari/537.36" etag="rNqWo1LR0Sdf6empjtbv" version="13.6.5" type="github">
  <diagram id="QC-oHBlBInknmBXqIp1W" name="Page-1">
    <mxGraphModel dx="1595" dy="806" grid="1" gridSize="10" guides="1" tooltips="1" connect="1" arrows="1" fold="1" page="1" pageScale="1" pageWidth="827" pageHeight="1169" math="0" shadow="0">
      <root>
        <mxCell id="0" />
        <mxCell id="1" parent="0" />
        <mxCell id="SCu_GXIJ-fSa5bfNlOLu-9" style="edgeStyle=orthogonalEdgeStyle;rounded=0;orthogonalLoop=1;jettySize=auto;html=1;exitX=1;exitY=0.5;exitDx=0;exitDy=0;" edge="1" parent="1" source="SCu_GXIJ-fSa5bfNlOLu-3" target="SCu_GXIJ-fSa5bfNlOLu-4">
          <mxGeometry relative="1" as="geometry" />
        </mxCell>
        <mxCell id="SCu_GXIJ-fSa5bfNlOLu-3" value="&lt;font style=&quot;font-size: 18px&quot;&gt;RGBD Camera&lt;/font&gt;" style="rounded=1;whiteSpace=wrap;html=1;" vertex="1" parent="1">
          <mxGeometry x="40" y="330" width="120" height="60" as="geometry" />
        </mxCell>
        <mxCell id="SCu_GXIJ-fSa5bfNlOLu-10" value="" style="edgeStyle=orthogonalEdgeStyle;rounded=0;orthogonalLoop=1;jettySize=auto;html=1;" edge="1" parent="1" source="SCu_GXIJ-fSa5bfNlOLu-4" target="SCu_GXIJ-fSa5bfNlOLu-6">
          <mxGeometry relative="1" as="geometry" />
        </mxCell>
        <mxCell id="SCu_GXIJ-fSa5bfNlOLu-4" value="&lt;font style=&quot;font-size: 18px&quot;&gt;Detection&lt;/font&gt;" style="rounded=1;whiteSpace=wrap;html=1;" vertex="1" parent="1">
          <mxGeometry x="230" y="330" width="120" height="60" as="geometry" />
        </mxCell>
        <mxCell id="SCu_GXIJ-fSa5bfNlOLu-11" value="" style="edgeStyle=orthogonalEdgeStyle;rounded=0;orthogonalLoop=1;jettySize=auto;html=1;" edge="1" parent="1" source="SCu_GXIJ-fSa5bfNlOLu-5" target="SCu_GXIJ-fSa5bfNlOLu-6">
          <mxGeometry relative="1" as="geometry" />
        </mxCell>
        <mxCell id="SCu_GXIJ-fSa5bfNlOLu-5" value="&lt;font style=&quot;font-size: 18px&quot;&gt;Prediction&lt;/font&gt;" style="rounded=1;whiteSpace=wrap;html=1;" vertex="1" parent="1">
          <mxGeometry x="430" y="240" width="120" height="60" as="geometry" />
        </mxCell>
        <mxCell id="SCu_GXIJ-fSa5bfNlOLu-15" style="edgeStyle=orthogonalEdgeStyle;rounded=0;orthogonalLoop=1;jettySize=auto;html=1;exitX=1;exitY=0.5;exitDx=0;exitDy=0;" edge="1" parent="1" source="SCu_GXIJ-fSa5bfNlOLu-6" target="SCu_GXIJ-fSa5bfNlOLu-13">
          <mxGeometry relative="1" as="geometry" />
        </mxCell>
        <mxCell id="SCu_GXIJ-fSa5bfNlOLu-6" value="&lt;font style=&quot;font-size: 18px&quot;&gt;Update&lt;/font&gt;" style="rounded=1;whiteSpace=wrap;html=1;" vertex="1" parent="1">
          <mxGeometry x="430" y="330" width="120" height="60" as="geometry" />
        </mxCell>
        <mxCell id="SCu_GXIJ-fSa5bfNlOLu-16" style="edgeStyle=orthogonalEdgeStyle;rounded=0;orthogonalLoop=1;jettySize=auto;html=1;exitX=1;exitY=0.5;exitDx=0;exitDy=0;" edge="1" parent="1" source="SCu_GXIJ-fSa5bfNlOLu-8" target="SCu_GXIJ-fSa5bfNlOLu-13">
          <mxGeometry relative="1" as="geometry" />
        </mxCell>
        <mxCell id="SCu_GXIJ-fSa5bfNlOLu-8" value="&lt;font style=&quot;font-size: 18px&quot;&gt;Laser&lt;/font&gt;" style="rounded=1;whiteSpace=wrap;html=1;" vertex="1" parent="1">
          <mxGeometry x="40" y="420" width="120" height="60" as="geometry" />
        </mxCell>
        <mxCell id="SCu_GXIJ-fSa5bfNlOLu-12" value="Measurement&lt;br&gt;" style="text;html=1;strokeColor=none;fillColor=none;align=center;verticalAlign=middle;whiteSpace=wrap;rounded=0;" vertex="1" parent="1">
          <mxGeometry x="370" y="340" width="40" height="20" as="geometry" />
        </mxCell>
        <mxCell id="SCu_GXIJ-fSa5bfNlOLu-13" value="&lt;font style=&quot;font-size: 18px&quot;&gt;Coordination&amp;nbsp;&lt;br&gt;Transformation&lt;/font&gt;" style="rounded=1;whiteSpace=wrap;html=1;" vertex="1" parent="1">
          <mxGeometry x="610" y="330" width="120" height="60" as="geometry" />
        </mxCell>
      </root>
    </mxGraphModel>
  </diagram>
</mxfile>
